<svg width="180" height="56" viewBox="0 0 180 56" fill="none" xmlns="http://www.w3.org/2000/svg">
<path fill-rule="evenodd" clip-rule="evenodd" d="M80 28.5002V18.5309C80 18.0838 80.1994 17.66 80.5439 17.3751L89.0439 10.3442C89.5987 9.88528 90.4013 9.88528 90.9561 10.3442L99.4561 17.3751C99.8006 17.66 100 18.0838 100 18.5309V28.5002C100 29.3286 99.3284 30.0002 98.5 30.0002H92.9224C92.9727 29.8502 93 29.6896 93 29.5227V23.3217C93 22.4932 92.3284 21.8217 91.5 21.8217H88.5C87.6716 21.8217 87 22.4932 87 23.3217V29.5227C87 29.6896 87.0273 29.8502 87.0776 30.0002H81.5C80.6716 30.0002 80 29.3286 80 28.5002Z" fill="#3A5CF3"/>
<path d="M93.6504 45.9082H86.3086V42.832H93.6504V45.9082ZM87.5918 44.9238H92.3789V43.8105H87.5918V44.9238ZM94.2949 37.2422H85.6406V36.2578H94.2949V37.2422ZM89.9941 37.5645C91.1348 37.5684 92.0039 37.6973 92.6016 37.9512C93.2031 38.2012 93.5039 38.5742 93.5039 39.0703C93.5039 39.5664 93.2031 39.9434 92.6016 40.2012C92.0039 40.4551 91.1348 40.582 89.9941 40.582C88.8574 40.582 87.9844 40.4551 87.375 40.2012C86.7695 39.9434 86.4668 39.5664 86.4668 39.0703C86.4668 38.5742 86.7695 38.2012 87.375 37.9512C87.9844 37.6973 88.8574 37.5684 89.9941 37.5645ZM89.9941 38.4492C89.502 38.4492 89.1016 38.4727 88.793 38.5195C88.4844 38.5625 88.252 38.6289 88.0957 38.7188C87.9395 38.8086 87.8613 38.9258 87.8613 39.0703C87.8613 39.2031 87.9395 39.3164 88.0957 39.4102C88.2559 39.5039 88.4922 39.5742 88.8047 39.6211C89.1172 39.668 89.5137 39.6934 89.9941 39.6973C90.4746 39.6934 90.8691 39.668 91.1777 39.6211C91.4902 39.5742 91.7246 39.5039 91.8809 39.4102C92.0371 39.3164 92.1152 39.2031 92.1152 39.0703C92.1152 38.9258 92.0371 38.8086 91.8809 38.7188C91.7246 38.6289 91.4922 38.5625 91.1836 38.5195C90.8789 38.4727 90.4824 38.4492 89.9941 38.4492ZM90.6387 36.9434H89.3379V35.3379H90.6387V36.9434ZM94.8164 42.2051H85.1719V41.1797H94.8164V42.2051ZM90.6387 41.748H89.3379V40.248H90.6387V41.748Z" fill="#3A5CF3"/>
</svg>
