<svg width="180" height="56" viewBox="0 0 180 56" fill="none" xmlns="http://www.w3.org/2000/svg">
<path d="M98 18.1818C98 24.5455 90 30 90 30C90 30 82 24.5455 82 18.1818C82 16.0119 82.8429 13.9308 84.3431 12.3964C85.8434 10.862 87.8783 10 90 10C92.1217 10 94.1566 10.862 95.6569 12.3964C97.1571 13.9308 98 16.0119 98 18.1818Z" fill="#3A5CF3"/>
<g clip-path="url(#clip0_290_969)">
<path d="M92.3646 14.7211C92.8903 14.8685 93.2939 15.0758 93.5769 15.3415C93.8591 15.6071 94.0002 15.907 94.0002 16.2421C94.0002 16.5771 93.8804 16.8668 93.6423 17.0835C93.4035 17.2995 93.0708 17.4083 92.646 17.4083C92.2211 17.4083 91.8443 17.2849 91.5448 17.039C91.2452 16.7931 91.0955 16.4829 91.0955 16.1093C91.0955 15.9816 91.1128 15.8582 91.1475 15.7408C90.9914 15.6919 90.7061 15.6671 90.5847 15.6671C90.3679 15.6671 90.1874 15.7262 90.0439 15.8445C89.9005 15.9619 89.8335 16.1298 89.8421 16.3466C89.8421 16.6028 90.1007 16.8188 90.3269 16.9961C90.5531 17.1735 90.9173 17.3946 91.421 17.6602C91.8553 17.8762 92.2132 18.0758 92.4962 18.2575C92.7776 18.44 93.0172 18.6688 93.2127 18.9439C93.4082 19.2198 93.506 19.5446 93.506 19.9182C93.506 19.997 93.4886 20.1452 93.4531 20.3612C93.3144 21.0201 92.9274 21.542 92.2936 21.9259C91.6599 22.3098 90.8259 22.5017 89.7925 22.5017C88.6282 22.5017 87.7052 22.3243 87.0241 21.9704C86.3423 21.6165 86.001 21.1298 86.001 20.5094C86.001 20.087 86.1137 19.7665 86.3399 19.5506C86.5662 19.3346 86.8657 19.2258 87.2393 19.2258C87.6737 19.2258 88.0449 19.3783 88.3531 19.6834C88.6613 19.9884 88.8158 20.3775 88.8158 20.8496C88.8158 20.9781 88.8024 21.1101 88.7772 21.2481C88.9853 21.3072 89.3314 21.3363 89.5221 21.3363C89.7483 21.3363 89.9344 21.2678 90.0826 21.1298C90.23 20.9919 90.3041 20.7999 90.3041 20.554C90.2954 20.3278 90.0495 20.1332 89.8587 19.9713C89.6672 19.8093 89.3637 19.6148 88.9467 19.3886C88.5557 19.1821 88.2349 18.9876 87.9826 18.8059C87.7312 18.6234 87.516 18.3955 87.3379 18.1195C87.1597 17.8445 87.0706 17.5197 87.0706 17.1452C87.0706 16.3389 87.3678 15.6962 87.9629 15.2189C88.5557 14.7382 89.4007 14.5 90.4948 14.5C91.2161 14.5 91.8388 14.5737 92.3646 14.7211Z" fill="white"/>
</g>
<path d="M69.8789 40.2129H68.5957V38.6543H69.8789V40.2129ZM69.6797 35.8242C69.6797 36.4453 69.498 36.9941 69.1348 37.4707C68.7754 37.9473 68.2715 38.3379 67.623 38.6426C66.9746 38.9434 66.2227 39.1484 65.3672 39.2578L64.916 38.2676C65.6582 38.1934 66.3047 38.0391 66.8555 37.8047C67.4102 37.5703 67.834 37.2832 68.127 36.9434C68.4238 36.6035 68.5723 36.2305 68.5723 35.8242V35.543H69.6797V35.8242ZM69.8965 35.8242C69.8965 36.2305 70.0449 36.6035 70.3418 36.9434C70.6387 37.2832 71.0625 37.5703 71.6133 37.8047C72.1641 38.0391 72.8086 38.1934 73.5469 38.2676L73.0957 39.2578C72.2441 39.1484 71.4922 38.9434 70.8398 38.6426C70.1875 38.3379 69.6816 37.9473 69.3223 37.4707C68.9668 36.9902 68.7891 36.4414 68.7891 35.8242V35.543H69.8965V35.8242ZM74.0742 40.9219H64.4297V39.8848H74.0742V40.9219ZM72.8789 44.1914H66.8555V45.2344H65.5664V43.2656H71.5898V42.5566H65.5605V41.5723H72.8789V44.1914ZM73.166 45.9492H65.5664V44.9531H73.166V45.9492ZM83.5605 36.7441H75.6621V35.7598H83.5605V36.7441ZM83.502 39.334H75.7266V38.3496H83.502V39.334ZM78.4219 39H77.1152V36.1406H78.4219V39ZM82.1016 39H80.8008V36.1406H82.1016V39ZM84.4453 41.0273H74.8008V40.002H84.4453V41.0273ZM83.25 44.2559H77.2266V45.3574H75.9375V43.3535H81.9609V42.6914H75.9316V41.748H83.25V44.2559ZM83.5371 45.9492H75.9375V44.9766H83.5371V45.9492ZM86.2148 42.4336C86.9883 42.4336 87.6641 42.416 88.2422 42.3809C88.8242 42.3418 89.4316 42.2676 90.0645 42.1582L90.1758 43.2188C89.5273 43.3359 88.9121 43.4141 88.3301 43.4531C87.752 43.4883 87.0469 43.5078 86.2148 43.5117H85.4824V42.4336H86.2148ZM89.2383 40.4414H86.7422V42.873H85.4824V39.4043H87.9844V37.5938H85.4648V36.5449H89.2383V40.4414ZM94.2773 46.0312H93.0469V35.4492H94.2773V46.0312ZM91.418 40.1895H89.707V39.1348H91.418V40.1895ZM92.0977 45.5098H90.8789V35.6719H92.0977V45.5098ZM104.35 46.0605H103.031V35.4492H104.35V46.0605ZM98.6426 36.2227C99.1738 36.2227 99.6484 36.377 100.066 36.6855C100.484 36.9902 100.811 37.4258 101.045 37.9922C101.279 38.5547 101.396 39.2109 101.396 39.9609C101.396 40.7148 101.279 41.375 101.045 41.9414C100.811 42.5039 100.484 42.9395 100.066 43.248C99.6484 43.5566 99.1738 43.7109 98.6426 43.7109C98.1074 43.7109 97.6309 43.5566 97.2129 43.248C96.7949 42.9395 96.4668 42.5039 96.2285 41.9414C95.9941 41.375 95.877 40.7148 95.877 39.9609C95.877 39.2109 95.9941 38.5547 96.2285 37.9922C96.4668 37.4258 96.7949 36.9902 97.2129 36.6855C97.6309 36.377 98.1074 36.2227 98.6426 36.2227ZM98.6426 37.3945C98.3457 37.3906 98.082 37.4922 97.8516 37.6992C97.625 37.9023 97.4492 38.1973 97.3242 38.584C97.1992 38.9707 97.1367 39.4297 97.1367 39.9609C97.1367 40.4922 97.1992 40.9531 97.3242 41.3438C97.4492 41.7305 97.625 42.0254 97.8516 42.2285C98.082 42.4277 98.3457 42.5273 98.6426 42.5273C98.9395 42.5273 99.2012 42.4277 99.4277 42.2285C99.6543 42.0254 99.8301 41.7305 99.9551 41.3438C100.08 40.9531 100.143 40.4922 100.143 39.9609C100.143 39.4297 100.08 38.9707 99.9551 38.584C99.8301 38.1973 99.6543 37.9023 99.4277 37.6992C99.2051 37.4922 98.9434 37.3906 98.6426 37.3945ZM111.141 36.8965C111.141 37.6504 110.951 38.3574 110.572 39.0176C110.197 39.6777 109.678 40.2383 109.014 40.6992C108.354 41.1602 107.605 41.4785 106.77 41.6543L106.207 40.5703C106.922 40.4336 107.568 40.1797 108.146 39.8086C108.729 39.4375 109.182 38.9961 109.506 38.4844C109.834 37.9727 109.998 37.4434 109.998 36.8965V36.123H111.141V36.8965ZM111.375 36.8965C111.375 37.4434 111.539 37.9746 111.867 38.4902C112.199 39.002 112.656 39.4453 113.238 39.8203C113.824 40.1914 114.477 40.4414 115.195 40.5703L114.615 41.6543C113.787 41.4785 113.043 41.1621 112.383 40.7051C111.723 40.248 111.203 39.6914 110.824 39.0352C110.449 38.375 110.262 37.6621 110.262 36.8965V36.123H111.375V36.8965ZM115.594 44.6895H105.914V43.6172H115.594V44.6895Z" fill="#3A5CF3"/>
<defs>
<clipPath id="clip0_290_969">
<rect width="8" height="8" fill="white" transform="translate(86 14.5)"/>
</clipPath>
</defs>
</svg>
