<svg width="12" height="12" viewBox="0 0 12 12" fill="none" xmlns="http://www.w3.org/2000/svg">
<path fill-rule="evenodd" clip-rule="evenodd" d="M5.8229 10.9594L5.8245 10.9601C5.93714 11.0106 6 10.9988 6 10.9988C6 10.9988 6.06286 11.0106 6.17595 10.9599L6.1771 10.9594L6.18037 10.9579L6.19075 10.9529C6.19934 10.9488 6.21124 10.9431 6.22623 10.9356C6.25621 10.9208 6.2986 10.8992 6.35162 10.8707C6.45759 10.8138 6.60641 10.7294 6.7838 10.6162C7.13785 10.3903 7.60992 10.0475 8.08313 9.57805C9.02981 8.63886 10 7.17131 10 5.11716C10 2.84331 8.20914 1 6 1C3.79086 1 2 2.84331 2 5.11716C2 7.17131 2.97019 8.63886 3.91687 9.57805C4.39008 10.0475 4.86215 10.3903 5.2162 10.6162C5.39359 10.7294 5.54241 10.8138 5.64838 10.8707C5.7014 10.8992 5.74379 10.9208 5.77377 10.9356C5.78876 10.9431 5.80066 10.9488 5.80925 10.9529L5.81963 10.9579L5.8229 10.9594ZM5.99915 6.44362C6.73003 6.44362 7.32253 5.85113 7.32253 5.12025C7.32253 4.38937 6.73003 3.79688 5.99915 3.79688C5.26828 3.79688 4.67578 4.38937 4.67578 5.12025C4.67578 5.85113 5.26828 6.44362 5.99915 6.44362Z" fill="#1C1C1C"/>
</svg>
