<svg width="107" height="30" viewBox="0 0 107 30" fill="none" xmlns="http://www.w3.org/2000/svg">
<path d="M17.0958 7.10114C18.1608 7.3769 18.9798 7.76488 19.5528 8.26189C20.1247 8.7589 20.4112 9.3211 20.4112 9.94637C20.4112 10.5716 20.1684 11.1167 19.6848 11.5208C19.2003 11.9258 18.5261 12.1289 17.6645 12.1289C16.803 12.1289 16.0404 11.8981 15.4323 11.4374C14.8242 10.9767 14.5207 10.3974 14.5207 9.69733C14.5207 9.45792 14.5547 9.22812 14.6261 9.00687C14.3087 8.91495 13.7315 8.86899 13.4855 8.86899C13.0456 8.86899 12.6793 8.97908 12.3885 9.20033C12.0978 9.42051 11.9615 9.73367 11.9796 10.1398C11.9796 10.6187 12.5036 11.0238 12.9615 11.3551C13.4195 11.6864 14.1586 12.1011 15.1799 12.5981C16.0607 13.0032 16.787 13.3763 17.36 13.7161C17.9308 14.0571 18.4154 14.4857 18.8126 15.0009C19.2088 15.5171 19.4069 16.1242 19.4069 16.8243C19.4069 16.9729 19.3717 17.2486 19.3004 17.6537C19.0192 18.8872 18.2354 19.8641 16.9499 20.5823C15.6645 21.3006 13.9743 21.6597 11.8795 21.6597C9.51942 21.6597 7.64822 21.3284 6.26691 20.6646C4.88454 20.002 4.19336 19.0913 4.19336 17.9306C4.19336 17.1396 4.42233 16.54 4.88028 16.1349C5.33823 15.7298 5.94528 15.5267 6.70356 15.5267C7.58432 15.5267 8.33621 15.8121 8.96136 16.3829C9.58652 16.9547 9.89963 17.6815 9.89963 18.5654C9.89963 18.8049 9.873 19.0539 9.82082 19.3115C10.2436 19.4226 10.9444 19.4772 11.331 19.4772C11.7889 19.4772 12.167 19.3489 12.4673 19.0913C12.7655 18.8326 12.9168 18.4746 12.9168 18.0139C12.8987 17.5907 12.4002 17.2262 12.0137 16.9226C11.626 16.6191 11.0104 16.2546 10.1637 15.8314C9.37139 15.4444 8.71961 15.081 8.20947 14.7401C7.69934 14.3991 7.26375 13.9716 6.90165 13.4553C6.54168 12.9402 6.36063 12.3331 6.36063 11.6319C6.36063 10.1217 6.96342 8.92029 8.17007 8.02675C9.37565 7.13427 11.0882 6.6875 13.3076 6.6875C14.7688 6.6875 16.0319 6.82538 17.098 7.10114H17.0958Z" fill="#3A5CF3"/>
<path d="M33.156 11.072C34.106 11.8843 34.5799 12.9478 34.5799 14.2614C34.5799 14.7039 34.5203 15.1987 34.4031 15.7449C34.123 16.9559 33.6012 18.0141 32.8365 18.9226C32.0718 19.8311 31.1336 20.5322 30.0228 21.0271C28.9109 21.522 27.7085 21.7689 26.4145 21.7689C24.3687 21.7689 22.8585 21.3584 21.8798 20.5397C20.901 19.721 20.4111 18.6318 20.4111 17.2723C20.4111 16.8148 20.4708 16.3061 20.5879 15.7449C20.867 14.5927 21.4005 13.5709 22.1876 12.6774C22.9746 11.7849 23.9384 11.0912 25.079 10.5953C26.2186 10.1004 27.4359 9.85352 28.7309 9.85352C30.732 9.85352 32.2071 10.2597 33.156 11.072ZM27.684 12.656C27.3379 13.2096 26.93 14.2539 26.4593 15.7898C25.9875 17.3257 25.7521 18.4031 25.7521 19.023C25.7521 19.348 25.8043 19.566 25.9065 19.6761C26.0088 19.7862 26.1494 19.8428 26.3261 19.8428C26.635 19.8728 26.9556 19.6066 27.2857 19.0455C27.6169 18.4843 28.0323 17.392 28.5328 15.7684C28.9886 14.3362 29.2166 13.2952 29.2166 12.6453C29.2166 12.3353 29.1686 12.1205 29.0728 12.0029C28.9769 11.8854 28.8417 11.8255 28.6649 11.8255C28.356 11.8255 28.028 12.1023 27.683 12.6571L27.684 12.656Z" fill="#3A5CF3"/>
<path d="M43.1532 5.6913C43.5568 6.01623 43.7603 6.45873 43.7603 7.01986C43.7603 7.34479 43.7081 7.66223 43.6058 7.97219L40.1414 19.2676C40.0967 19.445 40.0743 19.6 40.0743 19.7336C40.0743 19.925 40.1116 20.0767 40.185 20.1879C40.2585 20.299 40.3608 20.4059 40.4939 20.5085C40.5972 20.6122 40.6707 20.6966 40.7144 20.7629C40.7591 20.8303 40.7665 20.9147 40.7367 21.0173C40.6632 21.2097 40.5163 21.3497 40.2958 21.4384C40.0743 21.5271 39.7367 21.571 39.2809 21.571H34.2498C33.8675 21.571 33.5874 21.5079 33.4106 21.3828C33.2349 21.2578 33.1763 21.0921 33.2349 20.8848C33.2934 20.7084 33.4479 20.5524 33.6981 20.4198C33.9186 20.3022 34.1028 20.1612 34.2498 19.9987C34.3968 19.8373 34.5214 19.5787 34.6247 19.2238L37.9784 8.17207C38.0231 8.03953 38.0455 7.92837 38.0455 7.83966C38.0455 7.67826 38.005 7.54466 37.9241 7.44205C37.8431 7.33838 37.7366 7.23577 37.6035 7.13209C37.4565 7.01452 37.35 6.91084 37.284 6.82213C37.218 6.73342 37.2073 6.61585 37.251 6.46835C37.3394 6.12846 37.8026 5.83346 38.6419 5.58228C39.48 5.33111 40.3554 5.20605 41.2682 5.20605C42.1212 5.20605 42.7496 5.36852 43.1553 5.69344L43.1532 5.6913Z" fill="#3A5CF3"/>
<path d="M55.2683 11.072C56.2183 11.8843 56.6922 12.9478 56.6922 14.2614C56.6922 14.7039 56.6326 15.1987 56.5154 15.7449C56.2353 16.9559 55.7135 18.0141 54.9488 18.9226C54.1841 19.8311 53.2459 20.5322 52.1351 21.0271C51.0232 21.522 49.8208 21.7689 48.5268 21.7689C46.481 21.7689 44.9708 21.3584 43.9921 20.5397C43.0133 19.721 42.5234 18.6318 42.5234 17.2723C42.5234 16.8148 42.5831 16.3061 42.7002 15.7449C42.9793 14.5927 43.5128 13.5709 44.2999 12.6774C45.0869 11.7849 46.0507 11.0912 47.1913 10.5953C48.3309 10.1004 49.5482 9.85352 50.8432 9.85352C52.8444 9.85352 54.3194 10.2597 55.2683 11.072ZM49.7963 12.656C49.4502 13.2096 49.0423 14.2539 48.5716 15.7898C48.0998 17.3257 47.8644 18.4031 47.8644 19.023C47.8644 19.348 47.9166 19.566 48.0188 19.6761C48.1211 19.7862 48.2617 19.8428 48.4384 19.8428C48.7473 19.8728 49.0679 19.6066 49.398 19.0455C49.7292 18.4843 50.1446 17.392 50.6451 15.7684C51.1009 14.3362 51.3289 13.2952 51.3289 12.6453C51.3289 12.3353 51.2809 12.1205 51.1851 12.0029C51.0892 11.8854 50.954 11.8255 50.7772 11.8255C50.4683 11.8255 50.1403 12.1023 49.7953 12.6571L49.7963 12.656Z" fill="#3A5CF3"/>
<path d="M67.2959 10.3192C67.4503 10.4378 67.527 10.6003 67.527 10.8076C67.527 10.8664 67.5121 10.9701 67.4833 11.1176C67.2916 11.7675 66.8507 12.0924 66.1585 12.0924H64.8794L63.2244 17.5627C63.1509 17.7839 63.1136 18.0137 63.1136 18.2499C63.1136 18.515 63.1871 18.6999 63.3341 18.8036C63.4811 18.9073 63.6866 18.9586 63.9518 18.9586C64.1872 18.9586 64.4822 18.9286 64.8347 18.8699C65.0115 18.825 65.1659 18.8025 65.298 18.8025C65.4013 18.8025 65.479 18.8357 65.5291 18.9019C65.5812 18.9693 65.6068 19.0537 65.6068 19.1563C65.6207 19.4524 65.4045 19.8094 64.9561 20.2305C64.5067 20.6505 63.8996 21.0129 63.136 21.3153C62.3713 21.6178 61.5247 21.7696 60.5981 21.7696C59.5981 21.7696 58.7961 21.5409 58.1933 21.0834C57.5895 20.6259 57.2881 19.9975 57.2881 19.2012C57.2881 18.8324 57.3467 18.4776 57.4649 18.1377L58.8771 13.7534C58.9506 13.5022 58.9878 13.3034 58.9878 13.1559C58.9878 12.8598 58.9186 12.6097 58.778 12.4023C58.6385 12.1961 58.4436 11.9812 58.1933 11.76C57.9729 11.5537 57.8185 11.3795 57.7301 11.2395C57.6417 11.0994 57.6193 10.9338 57.663 10.7414C57.7215 10.5501 57.8462 10.4015 58.0379 10.2989C58.2285 10.1952 58.5309 10.1439 58.9431 10.1439H60.1785L61.5683 8.74801C62.055 8.26062 62.4991 7.9218 62.9038 7.72941C63.3075 7.53809 63.8336 7.44189 64.4811 7.44189C65.4076 7.44189 65.872 7.79568 65.872 8.50431C65.872 8.72556 65.8422 8.93292 65.7836 9.12424L65.4747 10.1428H66.6441C66.9242 10.1428 67.1404 10.2027 67.2948 10.3192H67.2959Z" fill="#3A5CF3"/>
<path d="M79.0812 10.6069C79.5733 11.1092 79.8203 11.7291 79.8203 12.4677C79.8203 12.7488 79.7905 13.0064 79.7319 13.2426C79.585 13.8476 79.3049 14.3136 78.8938 14.6385C78.4816 14.9634 77.9885 15.1259 77.4156 15.1259C76.8426 15.1259 76.4336 14.9933 76.1461 14.7272C75.8596 14.4611 75.6061 14.1073 75.3846 13.6648C75.2675 13.4136 75.1567 13.2287 75.0534 13.1111C74.9501 12.9936 74.8329 12.9337 74.7009 12.9337C74.5539 12.9337 74.4251 12.9936 74.3143 13.1111C74.2035 13.2287 74.1045 13.4361 74.0172 13.7311L72.3174 19.2676C72.2876 19.3414 72.2737 19.4525 72.2737 19.6C72.2737 19.7913 72.3281 19.9506 72.4388 20.0756C72.5496 20.2007 72.6997 20.3225 72.8914 20.4412C73.0672 20.5588 73.1854 20.655 73.244 20.7298C73.3025 20.8035 73.3249 20.8986 73.31 21.0173C73.2802 21.2097 73.1737 21.3497 72.9905 21.4384C72.8062 21.5271 72.4942 21.5709 72.0522 21.5709H66.4024C66.0201 21.5709 65.7442 21.5079 65.5749 21.3828C65.4066 21.2578 65.3438 21.0921 65.3875 20.8848C65.4471 20.7084 65.6015 20.5523 65.8518 20.4198C66.0723 20.3022 66.2565 20.1612 66.4035 19.9987C66.5504 19.8373 66.6761 19.5786 66.7783 19.2238L68.7422 12.8225C68.772 12.7488 68.7869 12.6462 68.7869 12.5126C68.7869 12.3501 68.7539 12.224 68.6879 12.1364C68.6208 12.0476 68.5143 11.9365 68.3673 11.804C68.2204 11.6864 68.1171 11.5816 68.0585 11.494C67.9988 11.4053 67.9914 11.2877 68.0361 11.1402C68.1245 10.8003 68.5878 10.501 69.427 10.2435C70.2652 9.9848 71.1406 9.85547 72.0522 9.85547C72.655 9.85547 73.1566 9.99228 73.5528 10.2659C73.9501 10.5395 74.2078 10.9264 74.3249 11.4288C75.031 10.3803 75.9586 9.85547 77.1057 9.85547C77.9289 9.85547 78.5871 10.1077 79.0812 10.609V10.6069Z" fill="#3A5CF3"/>
<path d="M86.7265 10.3418C87.1238 10.6667 87.3219 11.1092 87.3219 11.6714C87.3219 12.0113 87.2697 12.3352 87.1675 12.6462L85.1365 19.2676C85.0918 19.4451 85.0694 19.6 85.0694 19.7337C85.0694 19.925 85.1067 20.0767 85.1802 20.1879C85.2536 20.2991 85.3559 20.4059 85.489 20.5086C85.5923 20.6122 85.6658 20.6967 85.7095 20.7629C85.7542 20.8303 85.7617 20.9147 85.7318 21.0173C85.6583 21.2097 85.5114 21.3497 85.2909 21.4384C85.0694 21.5271 84.7318 21.571 84.276 21.571H79.2449C78.8626 21.571 78.5825 21.5079 78.4057 21.3829C78.23 21.2578 78.1714 21.0921 78.23 20.8848C78.2896 20.7084 78.443 20.5524 78.6933 20.4198C78.9137 20.3023 79.098 20.1612 79.2449 19.9987C79.3919 19.8373 79.5165 19.5787 79.6198 19.2238L81.5389 12.8226C81.5837 12.69 81.606 12.5789 81.606 12.4902C81.606 12.3277 81.5688 12.1994 81.4953 12.1022C81.4218 12.006 81.3121 11.9066 81.164 11.804C81.0171 11.6864 80.9138 11.5817 80.8552 11.494C80.7956 11.4053 80.7881 11.2877 80.8328 11.1402C80.9212 10.8003 81.3845 10.5011 82.2237 10.2435C83.0619 9.98483 83.9373 9.8555 84.849 9.8555C85.702 9.8555 86.3272 10.018 86.7244 10.3429L86.7265 10.3418ZM87.3964 4.78602C87.7788 5.16225 87.9705 5.62399 87.9705 6.17016C87.9705 6.55387 87.8714 6.93117 87.6723 7.29992C87.4742 7.66867 87.1941 7.96794 86.8341 8.19667C86.4741 8.4254 86.0726 8.53976 85.6317 8.53976C85.0726 8.53976 84.6051 8.35165 84.2302 7.97435C83.8553 7.59812 83.6604 7.12997 83.6455 6.56884C83.6455 6.20009 83.7413 5.83455 83.933 5.47221C84.1237 5.11095 84.3963 4.81168 84.7488 4.57546C85.1014 4.33925 85.5071 4.22168 85.9629 4.22168C86.537 4.22168 87.0141 4.40979 87.3975 4.78602H87.3964Z" fill="#3A5CF3"/>
<path d="M101.336 10.8957C101.983 11.6492 102.307 12.6753 102.307 13.9739C102.307 14.6687 102.212 15.3987 102.02 16.1661C101.579 17.9981 100.755 19.3886 99.548 20.341C98.3413 21.2933 96.944 21.7689 95.3551 21.7689C94.3401 21.7689 93.4572 21.5552 92.7075 21.1266L92.0003 23.4962C91.9417 23.6586 91.9119 23.8136 91.9119 23.9611C91.9119 24.1236 91.9481 24.2604 92.0227 24.3715C92.0962 24.4827 92.191 24.5896 92.3102 24.6932C92.4274 24.8108 92.5051 24.907 92.5413 24.9808C92.5775 25.0545 92.5818 25.1432 92.552 25.2469C92.4923 25.4382 92.3528 25.575 92.1324 25.6573C91.9119 25.7386 91.5733 25.7792 91.1174 25.7792H86.064C85.6817 25.7792 85.4058 25.7161 85.2365 25.5911C85.0682 25.466 85.0192 25.3068 85.0927 25.1154C85.1225 24.9979 85.1737 24.9017 85.2472 24.8269C85.3206 24.7531 85.4239 24.6868 85.556 24.628C85.7775 24.4805 85.9532 24.3298 86.0864 24.1738C86.2184 24.0188 86.3366 23.7708 86.4389 23.432L89.6605 12.8228C89.7052 12.6903 89.7276 12.5791 89.7276 12.4904C89.7276 12.3279 89.6903 12.1997 89.6168 12.1024C89.5434 12.0062 89.4326 11.9068 89.2856 11.8042C89.1387 11.6866 89.0354 11.5819 88.9768 11.4942C88.9171 11.4055 88.9097 11.2879 88.9544 11.1404C89.0428 10.8006 89.5061 10.5013 90.3453 10.2437C91.1835 9.98504 92.0589 9.85571 92.9705 9.85571C93.6181 9.85571 94.1516 10.0182 94.5702 10.3431C94.9898 10.668 95.2283 11.118 95.288 11.6941C96.288 10.4104 97.4137 9.76807 98.664 9.76807C99.7972 9.76807 100.688 10.1443 101.335 10.8978L101.336 10.8957ZM96.6352 13.6201C96.6352 13.3102 96.5873 13.1071 96.4914 13.0109C96.3956 12.9147 96.2603 12.8666 96.0825 12.8666C95.9504 12.8666 95.7811 12.9297 95.5745 13.0547C95.3689 13.1808 95.1634 13.3914 94.9568 13.6864L93.2133 19.4902C93.3901 19.6665 93.6031 19.7552 93.8534 19.7552C94.2507 19.7552 94.6298 19.5308 94.9898 19.0797C95.3497 18.6298 95.7214 17.718 96.1038 16.3446C96.4563 15.031 96.6341 14.1225 96.6341 13.6201H96.6352Z" fill="#3A5CF3"/>
</svg>
