<svg width="24" height="24" viewBox="0 0 24 24" fill="none" xmlns="http://www.w3.org/2000/svg">
<path d="M16.1946 4.41556C17.3011 5.47772 17.9167 6.91163 17.9167 8.4C17.9167 12.9745 19.1322 15.6828 20.1854 17.1639C20.1848 17.1711 20.1836 17.1797 20.1816 17.1895C20.1779 17.2083 20.1719 17.228 20.164 17.2468C20.1635 17.2479 20.1631 17.249 20.1626 17.25H3.8374C3.83695 17.249 3.8365 17.2479 3.83605 17.2468C3.82815 17.228 3.82214 17.2083 3.81836 17.1895C3.81638 17.1797 3.81521 17.1711 3.81457 17.1639C4.8678 15.6828 6.08333 12.9745 6.08333 8.4C6.08333 6.91164 6.69894 5.47772 7.80535 4.41556C8.91281 3.3524 10.4211 2.75 12 2.75C13.5789 2.75 15.0872 3.3524 16.1946 4.41556Z" stroke="#1C1C1C" stroke-width="1.5" stroke-linecap="round" stroke-linejoin="round"/>
<path fill-rule="evenodd" clip-rule="evenodd" d="M9.01921 19.6744C9.33711 19.4089 9.81009 19.4513 10.0756 19.7692C10.2361 19.9613 10.4905 20.1476 10.836 20.2858C11.18 20.4234 11.5822 20.5 12 20.5C12.4178 20.5 12.82 20.4234 13.164 20.2858C13.5095 20.1476 13.764 19.9613 13.9244 19.7692C14.19 19.4513 14.6629 19.4089 14.9808 19.6744C15.2987 19.94 15.3412 20.4129 15.0756 20.7308C14.7279 21.1471 14.2531 21.4657 13.7211 21.6785C13.1876 21.8919 12.5949 22 12 22C11.4052 22 10.8125 21.8919 10.279 21.6785C9.74698 21.4657 9.27211 21.1471 8.92441 20.7308C8.65887 20.4129 8.70131 19.94 9.01921 19.6744Z" fill="#1C1C1C"/>
</svg>
