<svg width="20" height="20" viewBox="0 0 20 20" fill="none" xmlns="http://www.w3.org/2000/svg">
<path d="M15.2197 8.96973C15.2197 12.4215 12.4215 15.2197 8.96973 15.2197C5.51795 15.2197 2.71973 12.4215 2.71973 8.96973C2.71973 5.51795 5.51795 2.71973 8.96973 2.71973C12.4215 2.71973 15.2197 5.51795 15.2197 8.96973Z" stroke="#333333" stroke-width="1.5" stroke-linecap="round" stroke-linejoin="round"/>
<path d="M15.2197 8.96973C15.2197 12.4215 12.4215 15.2197 8.96973 15.2197C5.51795 15.2197 2.71973 12.4215 2.71973 8.96973C2.71973 5.51795 5.51795 2.71973 8.96973 2.71973C12.4215 2.71973 15.2197 5.51795 15.2197 8.96973Z" stroke="black" stroke-opacity="0.2" stroke-width="1.5" stroke-linecap="round" stroke-linejoin="round"/>
<path fill-rule="evenodd" clip-rule="evenodd" d="M13.9698 12.9092L18.0305 16.9698L16.9698 18.0305L12.9092 13.9698L13.9698 12.9092Z" fill="#333333"/>
<path fill-rule="evenodd" clip-rule="evenodd" d="M13.9698 12.9092L18.0305 16.9698L16.9698 18.0305L12.9092 13.9698L13.9698 12.9092Z" fill="black" fill-opacity="0.2"/>
</svg>
